<svg xmlns="http://www.w3.org/2000/svg" viewBox="0 0 200 220" fill="none">
  <ellipse cx="100" cy="200" rx="58" ry="13" fill="#000" opacity="0.3"/>
  <path d="M100 190 C62 166 42 122 50 80 C56 42 84 18 100 16 C116 18 144 42 150 80 C158 122 138 166 100 190Z" fill="#FACC15" stroke="#1A1209" stroke-width="5" stroke-linejoin="round"/>
  <path d="M100 16 C86 48 70 82 58 116 M100 16 C114 48 130 82 142 116 M100 44 C82 68 66 102 58 136 M100 44 C118 68 134 102 142 136" stroke="#B45309" stroke-width="4" stroke-linecap="round"/>
  <ellipse cx="82" cy="68" rx="11" ry="13" fill="#FFF" opacity="0.45"/>
  <circle cx="70" cy="88" r="6" fill="#FDE68A" stroke="#1A1209" stroke-width="2"/>
  <circle cx="126" cy="80" r="6" fill="#FDE68A" stroke="#1A1209" stroke-width="2"/>
  <circle cx="94" cy="104" r="5" fill="#FEF08A" stroke="#1A1209" stroke-width="2"/>
</svg>
