<svg xmlns="http://www.w3.org/2000/svg" viewBox="0 0 200 220" fill="none">
  <defs>
    <linearGradient id="cosmic" x1="0%" y1="0%" x2="100%" y2="100%">
      <stop offset="0%" stop-color="#FF00FF"/>
      <stop offset="35%" stop-color="#00F0FF"/>
      <stop offset="70%" stop-color="#39FF14"/>
      <stop offset="100%" stop-color="#FFD700"/>
    </linearGradient>
  </defs>
  <ellipse cx="100" cy="200" rx="62" ry="15" fill="#000" opacity="0.35"/>
  <path d="M100 194 C54 170 34 115 46 65 C52 25 88 8 100 6 C112 8 148 25 154 65 C166 115 146 170 100 194Z" fill="url(#cosmic)" stroke="#FFF" stroke-width="5" stroke-linejoin="round"/>
  <path d="M100 6 C82 42 62 78 50 118 M100 6 C118 42 138 78 150 118 M100 38 C76 64 56 102 46 144 M100 38 C124 64 144 102 154 144" stroke="#1A1209" stroke-width="3" stroke-linecap="round" opacity="0.5"/>
  <ellipse cx="78" cy="60" rx="14" ry="16" fill="#FFF" opacity="0.55"/>
  <circle cx="64" cy="84" r="6" fill="#FFF" stroke="#1A1209" stroke-width="2"/>
  <circle cx="130" cy="74" r="6" fill="#FFF" stroke="#1A1209" stroke-width="2"/>
  <circle cx="90" cy="100" r="5" fill="#E0E7FF" stroke="#1A1209" stroke-width="2"/>
  <circle cx="100" cy="40" r="3" fill="#FFF"/>
  <circle cx="120" cy="55" r="2" fill="#FFF" opacity="0.8"/>
  <circle cx="80" cy="48" r="2" fill="#FFF" opacity="0.7"/>
</svg>
