<svg xmlns="http://www.w3.org/2000/svg" viewBox="0 0 200 220" fill="none">
  <ellipse cx="100" cy="200" rx="55" ry="12" fill="#000" opacity="0.25"/>
  <path d="M100 185 C70 165 50 130 55 95 C60 60 78 38 100 28 C122 38 140 60 145 95 C150 130 130 165 100 185Z" fill="#4ADE80" stroke="#1A1209" stroke-width="5" stroke-linejoin="round"/>
  <path d="M100 28 C92 55 82 85 72 115 M100 28 C108 55 118 85 128 115 M100 50 C88 70 78 95 70 125 M100 50 C112 70 122 95 130 125" stroke="#166534" stroke-width="4" stroke-linecap="round"/>
  <ellipse cx="88" cy="78" rx="8" ry="10" fill="#FFF" opacity="0.35"/>
  <circle cx="78" cy="95" r="5" fill="#86EFAC" stroke="#1A1209" stroke-width="2"/>
  <circle cx="118" cy="88" r="5" fill="#86EFAC" stroke="#1A1209" stroke-width="2"/>
  <circle cx="95" cy="110" r="4" fill="#86EFAC" stroke="#1A1209" stroke-width="2"/>
  <ellipse cx="100" cy="72" rx="22" ry="28" fill="rgba(255,255,255,0.12)"/>
</svg>
