<svg xmlns="http://www.w3.org/2000/svg" viewBox="0 0 200 220" fill="none">
  <ellipse cx="100" cy="200" rx="60" ry="14" fill="#000" opacity="0.32"/>
  <path d="M100 192 C58 168 38 118 48 72 C54 32 86 12 100 10 C114 12 146 32 152 72 C162 118 142 168 100 192Z" fill="#FB923C" stroke="#1A1209" stroke-width="5" stroke-linejoin="round"/>
  <path d="M100 10 C84 44 66 80 54 118 M100 10 C116 44 134 80 146 118 M100 40 C78 66 60 104 50 142 M100 40 C122 66 140 104 150 142" stroke="#C2410C" stroke-width="4" stroke-linecap="round"/>
  <ellipse cx="80" cy="64" rx="12" ry="14" fill="#FFF" opacity="0.48"/>
  <circle cx="66" cy="86" r="6" fill="#FED7AA" stroke="#1A1209" stroke-width="2"/>
  <circle cx="128" cy="76" r="6" fill="#FED7AA" stroke="#1A1209" stroke-width="2"/>
  <circle cx="92" cy="102" r="5" fill="#FFEDD5" stroke="#1A1209" stroke-width="2"/>
  <path d="M128 42 L136 28 L144 44 Z" fill="#FFD700" stroke="#1A1209" stroke-width="2"/>
</svg>
