<svg xmlns="http://www.w3.org/2000/svg" viewBox="0 0 200 220" fill="none">
  <ellipse cx="100" cy="200" rx="55" ry="12" fill="#000" opacity="0.25"/>
  <path d="M100 185 C68 162 48 125 54 88 C60 52 80 32 100 24 C120 32 140 52 146 88 C152 125 132 162 100 185Z" fill="#38BDF8" stroke="#1A1209" stroke-width="5" stroke-linejoin="round"/>
  <path d="M100 24 C90 52 78 82 68 112 M100 24 C110 52 122 82 132 112 M100 48 C86 68 74 98 66 128 M100 48 C114 68 126 98 134 128" stroke="#0369A1" stroke-width="4" stroke-linecap="round"/>
  <ellipse cx="86" cy="74" rx="9" ry="11" fill="#FFF" opacity="0.4"/>
  <circle cx="74" cy="92" r="5" fill="#7DD3FC" stroke="#1A1209" stroke-width="2"/>
  <circle cx="122" cy="85" r="5" fill="#7DD3FC" stroke="#1A1209" stroke-width="2"/>
  <circle cx="98" cy="108" r="4" fill="#BAE6FD" stroke="#1A1209" stroke-width="2"/>
</svg>
