<svg xmlns="http://www.w3.org/2000/svg" viewBox="0 0 64 64" fill="none">
  <defs>
    <linearGradient id="nug" x1="12" y1="8" x2="52" y2="56" gradientUnits="userSpaceOnUse">
      <stop stop-color="#4ADE80"/>
      <stop offset="0.5" stop-color="#22C55E"/>
      <stop offset="1" stop-color="#15803D"/>
    </linearGradient>
    <radialGradient id="galaxy" cx="32" cy="30" r="14" gradientUnits="userSpaceOnUse">
      <stop stop-color="#FDE68A"/>
      <stop offset="0.35" stop-color="#A855F7"/>
      <stop offset="0.7" stop-color="#38BDF8"/>
      <stop offset="1" stop-color="#0F172A"/>
    </radialGradient>
    <filter id="chunk" x="-10%" y="-10%" width="120%" height="120%">
      <feDropShadow dx="0" dy="2" stdDeviation="2" flood-color="#052E16" flood-opacity="0.55"/>
    </filter>
  </defs>
  <rect width="64" height="64" rx="14" fill="#1A2E12"/>
  <g filter="url(#chunk)">
    <path d="M32 8 C42 8 50 14 52 24 C54 34 48 44 38 50 C34 52 30 52 26 50 C16 44 10 34 12 24 C14 14 22 8 32 8 Z" fill="url(#nug)" stroke="#14532D" stroke-width="2"/>
    <ellipse cx="32" cy="30" rx="13" ry="11" fill="url(#galaxy)" opacity="0.95"/>
    <circle cx="26" cy="26" r="1.2" fill="#fff" opacity="0.9"/>
    <circle cx="36" cy="28" r="0.8" fill="#FDE68A" opacity="0.85"/>
    <circle cx="30" cy="34" r="0.6" fill="#E879F9" opacity="0.8"/>
    <path d="M28 14 C30 10 34 10 36 14" stroke="#86EFAC" stroke-width="2.5" stroke-linecap="round"/>
    <path d="M38 16 C41 13 45 15 44 19" stroke="#86EFAC" stroke-width="2" stroke-linecap="round"/>
    <path d="M20 20 C17 17 14 19 16 23" stroke="#86EFAC" stroke-width="2" stroke-linecap="round"/>
  </g>
</svg>
