<svg xmlns="http://www.w3.org/2000/svg" viewBox="0 0 120 140" fill="none">
  <defs>
    <linearGradient id="leaf" x1="0%" y1="0%" x2="100%" y2="100%">
      <stop offset="0%" stop-color="#4ade80"/>
      <stop offset="50%" stop-color="#22c55e"/>
      <stop offset="100%" stop-color="#15803d"/>
    </linearGradient>
    <filter id="glow"><feGaussianBlur stdDeviation="2" result="b"/><feMerge><feMergeNode in="b"/><feMergeNode in="SourceGraphic"/></feMerge></filter>
  </defs>
  <path d="M60 130 C40 110 25 85 30 60 C35 35 50 20 60 15 C70 20 85 35 90 60 C95 85 80 110 60 130Z" fill="url(#leaf)" filter="url(#glow)"/>
  <path d="M60 15 C55 45 45 70 35 95 M60 15 C65 45 75 70 85 95 M60 40 C50 55 42 75 38 100 M60 40 C70 55 78 75 82 100" stroke="#86efac" stroke-width="2" stroke-linecap="round" opacity="0.7"/>
  <ellipse cx="60" cy="55" rx="18" ry="28" fill="rgba(255,255,255,0.08)"/>
</svg>
